<?xml version="1.0" encoding="UTF-8"?>
<svg xmlns="http://www.w3.org/2000/svg" xmlns:xlink="http://www.w3.org/1999/xlink" width="190" height="auto" viewBox="0 0 12662.2782 3259.892" version="1.1">
<g id="surface1">
<path style=" stroke:none;fill-rule:evenodd;fill:rgb(30.979919%,29.803467%,41.567993%);fill-opacity:1;" d="M 714.96875 162.890625 L 1542.695313 162.890625 C 1635.097656 162.890625 1710.695313 238.492188 1710.695313 330.890625 L 1710.695313 1168.945313 C 1701.246094 1173.421875 1692.242188 1178.929688 1683.882813 1185.503906 C 1643.722656 1213.050781 1621.355469 1260.136719 1616.148438 1307.691406 C 1611.09375 1353.875 1621.605469 1399.164063 1643.835938 1438.609375 C 1600.328125 1438.921875 1557.347656 1430.191406 1516.355469 1411.820313 C 1486.902344 1398.621094 1459.441406 1380.898438 1434.910156 1359.792969 C 1497.710938 1335.449219 1547.75 1295.183594 1584.023438 1235.445313 C 1590.082031 1225.46875 1595.695313 1208.730469 1599.230469 1197.265625 C 1630.457031 1096.082031 1607.761719 993.671875 1506.398438 944.785156 C 1484.164063 934.0625 1457.785156 926.640625 1433.179688 924.523438 C 1399.921875 921.660156 1366.953125 927.886719 1337 942.601563 C 1293.621094 963.90625 1259.695313 1000.914063 1236.191406 1042.605469 C 1221.53125 1068.609375 1213.363281 1095.160156 1210.269531 1124.808594 C 1205.335938 1172.105469 1214.316406 1220.152344 1231.519531 1264.847656 C 1098.539063 1253.566406 971.816406 1180.679688 879.929688 1086.773438 C 819.15625 1024.667969 768.488281 948.335938 738.90625 865.308594 L 777.882813 876.242188 L 876.816406 770.339844 L 740.339844 674.261719 C 742.296875 634.386719 743.957031 594.210938 744.089844 554.683594 C 744.125 544.363281 744.082031 534.023438 743.984375 523.671875 L 1067.097656 633.285156 L 1062.476563 457.550781 L 725.183594 266.636719 C 722.761719 239.707031 720.164063 212.785156 717.398438 185.914063 C 716.605469 178.238281 715.800781 170.566406 714.96875 162.890625 Z M 1699.0625 1544.160156 C 1674.449219 1606.492188 1613.507813 1650.890625 1542.695313 1650.890625 L 390.695313 1650.890625 C 298.296875 1650.890625 222.695313 1575.292969 222.695313 1482.890625 L 222.695313 718.289063 L 499.746094 550.371094 C 501.886719 560.5 504.082031 570.601563 506.34375 580.667969 C 515.03125 619.304688 525.351563 658.253906 535.90625 696.835938 L 433.695313 809.855469 L 550.921875 890.316406 L 596.984375 868.25 C 624.476563 947.28125 669.046875 1025.71875 717.453125 1091.539063 C 857.195313 1281.539063 1064.660156 1417.730469 1306.382813 1389.957031 C 1377.851563 1474.597656 1478.386719 1532.707031 1589.269531 1545.78125 C 1625.945313 1550.105469 1662.773438 1549.375 1699.0625 1544.160156 Z M 1454.414063 1051.242188 C 1440.023438 1044.714844 1424.453125 1040.191406 1408.519531 1042.078125 C 1381.0625 1045.324219 1358.523438 1067.644531 1343.757813 1089.5 C 1333.035156 1105.367188 1327.359375 1118.167969 1325.160156 1137.375 C 1320.621094 1177.027344 1334.21875 1220.464844 1353.242188 1257.183594 C 1404.867188 1245.859375 1447.902344 1223.578125 1478.546875 1176.175781 L 1481.121094 1170.015625 C 1491.019531 1143.703125 1498.816406 1104.308594 1484.832031 1078.363281 C 1477.921875 1065.542969 1467.109375 1057.734375 1454.414063 1051.242188 Z M 554.792969 425.726563 L 263.28125 602.402344 L 259.550781 583.121094 L 545.355469 325.871094 C 545.355469 325.871094 520.332031 141.335938 520.578125 95.390625 C 522.089844 77.953125 527.46875 7.164063 562.878906 1.117188 C 563.011719 1.097656 563.140625 1.078125 563.273438 1.0625 C 563.402344 1.042969 563.535156 1.023438 563.671875 1.035156 C 599.542969 -0.722656 620.089844 67.230469 625.347656 83.933594 C 635.5 128.738281 650.949219 314.324219 650.949219 314.324219 L 985.597656 503.742188 L 986.113281 523.375 L 663.304688 413.867188 C 663.304688 413.867188 666.183594 506.636719 666.023438 554.421875 C 665.863281 602.207031 660.195313 713.308594 660.195313 713.308594 L 758.566406 782.5625 L 753.25 788.25 L 646.046875 758.179688 L 557.890625 800.414063 L 551.472656 796.007813 L 622.539063 717.425781 C 622.539063 717.425781 593 610.171875 582.507813 563.546875 C 572.039063 516.929688 554.792969 425.726563 554.792969 425.726563 "/>
<path style=" stroke:none;fill-rule:evenodd;fill:rgb(79.608154%,9.411621%,38.430786%);fill-opacity:1;" d="M 1962.695313 162.890625 L 3114.695313 162.890625 C 3207.097656 162.890625 3282.695313 238.492188 3282.695313 330.890625 L 3282.695313 1482.890625 C 3282.695313 1575.292969 3207.097656 1650.890625 3114.695313 1650.890625 L 1962.695313 1650.890625 C 1870.296875 1650.890625 1794.695313 1575.292969 1794.695313 1482.890625 L 1794.695313 330.890625 C 1794.695313 238.492188 1870.296875 162.890625 1962.695313 162.890625 "/>
<path style=" stroke:none;fill-rule:evenodd;fill:rgb(60.784912%,82.745361%,68.235779%);fill-opacity:1;" d="M 1962.695313 1770.890625 L 3114.695313 1770.890625 C 3207.097656 1770.890625 3282.695313 1846.492188 3282.695313 1938.890625 L 3282.695313 3090.890625 C 3282.695313 3183.292969 3207.097656 3258.890625 3114.695313 3258.890625 L 1962.695313 3258.890625 C 1870.296875 3258.890625 1794.695313 3183.292969 1794.695313 3090.890625 L 1794.695313 1938.890625 C 1794.695313 1846.492188 1870.296875 1770.890625 1962.695313 1770.890625 "/>
<path style=" stroke:none;fill-rule:evenodd;fill:rgb(0%,58.432007%,85.490417%);fill-opacity:1;" d="M 1542.695313 1770.890625 L 390.695313 1770.890625 C 303.382813 1770.890625 231.085938 1838.398438 223.386719 1923.792969 C 301.039063 1948.988281 359.046875 2020.050781 363.417969 2106.308594 C 367.886719 2194.386719 314.390625 2274.160156 234.699219 2305.300781 L 248.933594 2586.273438 C 261.011719 2598.136719 268.453125 2614.027344 268.925781 2632.371094 C 270.398438 2689.84375 282.066406 2757.191406 296.683594 2812.863281 C 311.753906 2870.277344 332 2925.0625 361.339844 2976.84375 L 377.488281 3002.414063 C 407.472656 3046.5 443.507813 3083.074219 490.644531 3108.058594 C 523.859375 3124.859375 558.851563 3134.511719 595.972656 3137.28125 L 597.90625 3137.40625 C 648.71875 3140.703125 706.214844 3134.054688 753.296875 3113.777344 L 782.644531 3099.136719 L 790.917969 3094.121094 C 806.59375 3083.613281 820.726563 3072.507813 834.300781 3059.277344 L 840.101563 3053.347656 C 869.425781 3021.390625 890.1875 2986.808594 906.199219 2948.601563 C 848.933594 2935.910156 794.710938 2910.054688 747.890625 2874.660156 C 570.722656 2740.714844 495.15625 2508.441406 494.210938 2293.238281 C 493.71875 2180.984375 494.210938 2068.734375 494.210938 1956.480469 C 494.210938 1908.847656 531.570313 1873.082031 578.648438 1873.003906 C 591.003906 1872.984375 603.363281 1872.957031 615.71875 1872.925781 L 615.679688 1852.015625 L 765.550781 1851.660156 C 799.785156 1851.582031 827.628906 1879.304688 827.6875 1913.542969 L 827.757813 1953.246094 C 827.816406 1987.445313 800.121094 2015.261719 765.917969 2015.339844 L 663.683594 2015.585938 C 663.683594 2098.339844 663.683594 2181.09375 663.683594 2263.847656 C 663.683594 2414.722656 693.765625 2575.402344 797.449219 2691.164063 C 840.726563 2739.484375 898.863281 2780.933594 965.066406 2787.273438 C 1029.246094 2793.417969 1091.265625 2767.773438 1139.121094 2726.015625 C 1261.699219 2619.054688 1307.839844 2444.855469 1308.058594 2287.425781 C 1308.1875 2196.808594 1308.105469 2106.191406 1308.070313 2015.578125 L 1209.742188 2015.339844 C 1175.535156 2015.261719 1147.824219 1987.441406 1147.894531 1953.234375 L 1147.96875 1913.53125 C 1148.039063 1879.300781 1175.875 1851.582031 1210.105469 1851.660156 L 1359.976563 1852.015625 L 1359.941406 1872.527344 C 1374.148438 1872.480469 1397.097656 1871.902344 1411.253906 1875.097656 C 1450.703125 1883.242188 1477.535156 1915.65625 1477.535156 1956.480469 C 1477.535156 2063.542969 1477.535156 2170.601563 1477.535156 2277.664063 C 1477.535156 2472.664063 1424.09375 2674.933594 1286.726563 2819.128906 C 1229.542969 2879.152344 1158.046875 2924.644531 1077.871094 2945.355469 C 1048.855469 3038.347656 1000.660156 3120.46875 923.46875 3183.183594 C 881.867188 3216.984375 831.800781 3242.335938 777.941406 3258.890625 L 1542.695313 3258.890625 C 1635.097656 3258.890625 1710.695313 3183.292969 1710.695313 3090.890625 L 1710.695313 1938.890625 C 1710.695313 1846.492188 1635.097656 1770.890625 1542.695313 1770.890625 Z M 51.191406 2122.132813 C 58.578125 2267.9375 278.101563 2251.640625 270.976563 2110.996094 C 267.902344 2050.308594 216.203125 2003.597656 155.515625 2006.675781 C 94.824219 2009.75 48.117188 2061.441406 51.191406 2122.132813 Z M 152.980469 1956.691406 C 241.277344 1952.21875 316.480469 2020.167969 320.953125 2108.464844 C 325.066406 2189.492188 268.164063 2259.445313 190.53125 2273.886719 L 207.53125 2609.339844 C 218.183594 2613.464844 226.113281 2621.457031 226.417969 2633.460938 C 227.878906 2690.421875 240.378906 2765.851563 255.554688 2823.660156 C 271.484375 2884.335938 292.800781 2942.351563 324.855469 2998.703125 L 341.917969 3025.71875 C 376.460938 3076.644531 410.757813 3110.523438 463.925781 3142.101563 C 455.371094 3137.023438 469.015625 3144.761719 471.25 3145.894531 C 509.527344 3165.289063 549.90625 3176.484375 592.820313 3179.683594 C 592.179688 3179.648438 591.386719 3179.597656 590.421875 3179.53125 L 595.15625 3179.839844 C 652.914063 3183.601563 717.644531 3175.707031 771.257813 3152.335938 L 802.941406 3136.527344 C 804.800781 3135.480469 814.839844 3129.222656 812.414063 3130.890625 C 831.785156 3118.074219 847.773438 3105.53125 864.066406 3089.640625 C 865.449219 3088.292969 872.308594 3081.113281 869.578125 3084.097656 C 916.296875 3033.894531 943.804688 2978.316406 963.804688 2914.132813 C 895.085938 2909.359375 828.636719 2882.402344 773.535156 2840.742188 C 607.265625 2715.042969 537.609375 2494.554688 536.730469 2293.050781 C 536.234375 2180.867188 536.730469 2068.671875 536.730469 1956.480469 C 536.730469 1929.210938 558.503906 1915.546875 578.71875 1915.523438 C 605.25 1915.46875 631.777344 1915.398438 658.316406 1915.335938 L 658.277344 1894.4375 L 765.648438 1894.179688 C 776.40625 1894.152344 785.148438 1902.855469 785.167969 1913.617188 L 785.234375 1953.320313 C 785.257813 1964.0625 776.5625 1972.792969 765.816406 1972.820313 L 658.417969 1973.078125 L 658.378906 1954.660156 C 645.949219 1954.6875 633.515625 1954.71875 621.082031 1954.742188 C 621.101563 1955.332031 621.164063 1955.882813 621.164063 1956.480469 C 621.164063 2058.941406 621.164063 2161.390625 621.164063 2263.847656 C 621.164063 2425.53125 654.554688 2595.355469 765.777344 2719.53125 C 816.398438 2776.050781 883.703125 2822.199219 961.011719 2829.597656 C 1036.882813 2836.867188 1110.300781 2807.59375 1167.078125 2758.050781 C 1299.371094 2642.617188 1350.34375 2457.496094 1350.578125 2287.484375 C 1350.738281 2177.152344 1350.578125 2066.8125 1350.578125 1956.480469 C 1350.578125 1955.882813 1350.648438 1955.324219 1350.667969 1954.738281 C 1339.539063 1954.710938 1328.40625 1954.6875 1317.273438 1954.660156 L 1317.238281 1973.078125 L 1209.839844 1972.820313 C 1199.09375 1972.792969 1190.394531 1964.0625 1190.414063 1953.320313 L 1190.488281 1913.617188 C 1190.507813 1902.855469 1199.253906 1894.152344 1210.007813 1894.179688 L 1317.378906 1894.4375 L 1317.34375 1915.335938 C 1331.273438 1915.367188 1393.535156 1914.105469 1402.1875 1916.644531 C 1419.738281 1920.09375 1435.015625 1933.335938 1435.015625 1956.480469 C 1435.015625 2063.542969 1435.015625 2170.605469 1435.015625 2277.664063 C 1435.015625 2461.3125 1385.617188 2653.671875 1255.9375 2789.800781 C 1198.582031 2850 1125.675781 2894.105469 1044.082031 2909.335938 C 1020.171875 2997.554688 977.496094 3084.511719 896.65625 3150.183594 C 780.128906 3244.867188 578.664063 3269.609375 435.941406 3198.761719 C 254.09375 3108.496094 184.453125 2902.644531 158.441406 2726.042969 C 153.488281 2692.398438 150.46875 2669.542969 149.523438 2635.390625 C 149.246094 2624.378906 155.578125 2616.425781 164.691406 2611.582031 L 147.6875 2276.0625 C 69 2269.539063 5.3125 2205.691406 1.207031 2124.671875 C -3.265625 2036.375 64.6875 1961.164063 152.980469 1956.691406 "/>
<path style=" stroke:none;fill-rule:nonzero;fill:rgb(100%,100%,100%);fill-opacity:1;" d="M 2018.4375 3112.382813 L 2018.4375 1871.570313 L 2045.878906 1871.570313 L 2794.160156 2572.886719 L 2794.160156 1910.609375 L 3058.957031 1910.609375 L 3058.957031 3158.214844 L 3034.058594 3158.214844 L 2283.234375 2456.898438 L 2283.234375 3112.382813 Z M 2018.4375 3112.382813 "/>
<path style=" stroke:none;fill-rule:nonzero;fill:rgb(241 241 241);fill-opacity:1;" d="M 4256.730469 1861.898438 L 4256.730469 641.300781 L 5003.109375 1358.925781 C 5023.367188 1379.1875 5043.902344 1400.820313 5064.988281 1423.816406 C 5085.796875 1446.816406 5107.699219 1472.828125 5130.699219 1501.578125 L 5130.699219 687.296875 L 5306.476563 687.296875 L 5306.476563 1907.894531 L 4545.589844 1176.851563 C 4525.328125 1156.863281 4505.613281 1136.054688 4486.722656 1114.152344 C 4467.554688 1092.246094 4449.757813 1069.246094 4432.511719 1045.152344 L 4432.511719 1861.898438 Z M 5824.230469 1400.273438 L 6151.695313 1400.273438 L 6031.226563 1132.496094 C 6024.378906 1115.519531 6016.988281 1095.804688 6009.59375 1073.628906 C 6002.203125 1051.449219 5994.535156 1026.808594 5987.144531 999.429688 C 5980.847656 1025.167969 5974 1048.988281 5966.609375 1071.164063 C 5959.488281 1093.34375 5952.097656 1113.878906 5944.703125 1132.496094 Z M 6352.117188 1861.898438 L 6219.050781 1559.621094 L 5753.59375 1559.621094 L 5617.238281 1861.898438 L 5416.820313 1861.898438 L 5985.5 641.300781 L 6553.632813 1861.898438 Z M 6851.253906 1183.421875 L 6924.085938 1183.421875 C 7014.984375 1183.421875 7079.054688 1171.101563 7116.839844 1146.183594 C 7154.351563 1121.269531 7173.242188 1079.378906 7173.242188 1020.785156 C 7173.242188 956.441406 7155.992188 911.539063 7121.21875 885.527344 C 7086.449219 859.515625 7020.734375 846.648438 6924.085938 846.648438 L 6851.253906 846.648438 Z M 6851.253906 1702.546875 L 6916.964844 1702.546875 C 6983.773438 1702.546875 7033.878906 1699.808594 7067.007813 1694.605469 C 7100.136719 1689.128906 7126.148438 1679.820313 7145.589844 1666.40625 C 7169.136719 1651.070313 7187.207031 1629.988281 7200.074219 1603.976563 C 7212.941406 1577.695313 7219.242188 1548.945313 7219.242188 1517.183594 C 7219.242188 1479.945313 7211.574219 1447.089844 7195.96875 1419.4375 C 7180.359375 1391.511719 7158.183594 1369.878906 7129.433594 1354.546875 C 7111.363281 1345.238281 7090.554688 1338.667969 7067.28125 1334.285156 C 7044.007813 1330.179688 7013.070313 1327.988281 6974.464844 1327.988281 L 6851.253906 1327.988281 Z M 6663.976563 1861.898438 L 6663.976563 687.296875 L 6960.226563 687.296875 C 7044.832031 687.296875 7107.257813 691.953125 7147.503906 700.988281 C 7188.027344 710.023438 7222.253906 725.082031 7250.726563 745.890625 C 7287.144531 772.722656 7315.34375 807.769531 7335.332031 851.03125 C 7355.320313 894.5625 7365.449219 942.203125 7365.449219 994.773438 C 7365.449219 1057.472656 7350.9375 1109.769531 7322.1875 1151.660156 C 7293.167969 1193.828125 7251.273438 1223.125 7196.242188 1239.550781 C 7264.691406 1250.230469 7318.355469 1281.441406 7357.507813 1333.191406 C 7396.664063 1384.664063 7416.375 1449.828125 7416.375 1528.410156 C 7416.375 1575.777344 7408.160156 1620.953125 7391.460938 1663.941406 C 7375.03125 1706.652344 7351.484375 1743.066406 7321.09375 1772.914063 C 7288.785156 1805.496094 7249.085938 1828.492188 7201.445313 1841.910156 C 7153.800781 1855.324219 7074.125 1861.898438 6961.871094 1861.898438 Z M 7858.5625 1400.273438 L 8186.027344 1400.273438 L 8065.554688 1132.496094 C 8058.710938 1115.519531 8051.316406 1095.804688 8043.925781 1073.628906 C 8036.53125 1051.449219 8028.867188 1026.808594 8021.472656 999.429688 C 8015.175781 1025.167969 8008.332031 1048.988281 8000.9375 1071.164063 C 7993.820313 1093.34375 7986.425781 1113.878906 7979.035156 1132.496094 Z M 8386.449219 1861.898438 L 8253.382813 1559.621094 L 7787.921875 1559.621094 L 7651.570313 1861.898438 L 7451.148438 1861.898438 L 8019.828125 641.300781 L 8587.964844 1861.898438 Z M 8888.871094 1689.402344 L 9049.589844 1689.402344 C 9137.753906 1689.402344 9204.011719 1683.652344 9248.09375 1671.878906 C 9292.449219 1660.105469 9330.78125 1640.121094 9363.363281 1612.464844 C 9407.71875 1574.40625 9441.121094 1527.3125 9463.300781 1470.636719 C 9485.476563 1414.234375 9496.703125 1348.523438 9496.703125 1273.777344 C 9496.703125 1198.753906 9485.476563 1133.316406 9463.300781 1076.914063 C 9441.121094 1020.238281 9407.71875 973.144531 9363.363281 935.085938 C 9330.234375 907.433594 9290.535156 887.445313 9244.261719 875.671875 C 9197.988281 863.898438 9125.433594 858.148438 9026.863281 858.148438 L 8888.871094 858.148438 Z M 8698.304688 1861.898438 L 8698.304688 687.296875 L 8955.402344 687.296875 C 9122.96875 687.296875 9240.703125 695.785156 9309.152344 712.488281 C 9377.328125 729.460938 9437.015625 757.664063 9488.488281 797.089844 C 9556.390625 849.113281 9607.867188 915.644531 9642.914063 996.964844 C 9677.960938 1078.285156 9695.484375 1171.101563 9695.484375 1275.417969 C 9695.484375 1379.738281 9677.960938 1472.007813 9642.914063 1552.503906 C 9607.867188 1633 9556.390625 1699.535156 9488.488281 1752.105469 C 9437.015625 1791.53125 9378.695313 1819.730469 9312.984375 1836.707031 C 9247.546875 1853.410156 9145.417969 1861.898438 9006.878906 1861.898438 Z M 10133.5625 1400.273438 L 10461.027344 1400.273438 L 10340.554688 1132.496094 C 10333.710938 1115.519531 10326.316406 1095.804688 10318.925781 1073.628906 C 10311.53125 1051.449219 10303.863281 1026.808594 10296.472656 999.429688 C 10290.175781 1025.167969 10283.328125 1048.988281 10275.9375 1071.164063 C 10268.820313 1093.34375 10261.425781 1113.878906 10254.035156 1132.496094 Z M 10661.445313 1861.898438 L 10528.378906 1559.621094 L 10062.921875 1559.621094 L 9926.570313 1861.898438 L 9726.148438 1861.898438 L 10294.828125 641.300781 L 10862.964844 1861.898438 Z M 11221.367188 1400.273438 L 11548.832031 1400.273438 L 11428.359375 1132.496094 C 11421.515625 1115.519531 11414.121094 1095.804688 11406.730469 1073.628906 C 11399.335938 1051.449219 11391.671875 1026.808594 11384.277344 999.429688 C 11377.980469 1025.167969 11371.136719 1048.988281 11363.742188 1071.164063 C 11356.625 1093.34375 11349.230469 1113.878906 11341.839844 1132.496094 Z M 11749.253906 1861.898438 L 11616.1875 1559.621094 L 11150.726563 1559.621094 L 11014.375 1861.898438 L 10813.953125 1861.898438 L 11382.632813 641.300781 L 11950.769531 1861.898438 Z M 12350.789063 849.933594 L 12350.789063 1861.898438 L 12160.226563 1861.898438 L 12160.226563 849.933594 L 11848.09375 849.933594 L 11848.09375 687.296875 L 12661.277344 687.296875 L 12661.277344 849.933594 Z M 12350.789063 849.933594 "/>
<path style=" stroke:none;fill-rule:nonzero;fill:rgb(241 241 241);fill-opacity:1;" d="M 4154.578125 2648.492188 L 4154.578125 2318.140625 L 4208.175781 2318.140625 L 4208.175781 2440.117188 L 4370.808594 2440.117188 L 4370.808594 2318.140625 L 4424.40625 2318.140625 L 4424.40625 2648.492188 L 4370.808594 2648.492188 L 4370.808594 2488.167969 L 4208.175781 2488.167969 L 4208.175781 2648.492188 Z M 4500.179688 2648.492188 L 4500.179688 2318.140625 L 4684.53125 2318.140625 L 4684.53125 2363.882813 L 4553.773438 2363.882813 L 4553.773438 2446.585938 L 4684.53125 2446.585938 L 4684.53125 2493.710938 L 4553.773438 2493.710938 L 4553.773438 2600.441406 L 4684.53125 2600.441406 L 4684.53125 2648.492188 Z M 4815.824219 2518.660156 L 4907.921875 2518.660156 L 4874.039063 2443.351563 C 4872.117188 2438.578125 4870.035156 2433.03125 4867.957031 2426.792969 C 4865.878906 2420.558594 4863.722656 2413.625 4861.644531 2405.925781 C 4859.871094 2413.164063 4857.945313 2419.863281 4855.867188 2426.101563 C 4853.863281 2432.339844 4851.785156 2438.113281 4849.707031 2443.351563 Z M 4964.292969 2648.492188 L 4926.867188 2563.480469 L 4795.957031 2563.480469 L 4757.609375 2648.492188 L 4701.242188 2648.492188 L 4861.179688 2305.203125 L 5020.96875 2648.492188 Z M 5052 2648.492188 L 5052 2318.140625 L 5105.597656 2318.140625 L 5105.597656 2600.441406 L 5225.726563 2600.441406 L 5225.726563 2648.492188 Z M 5350.703125 2363.882813 L 5350.703125 2648.492188 L 5297.109375 2648.492188 L 5297.109375 2363.882813 L 5209.324219 2363.882813 L 5209.324219 2318.140625 L 5438.027344 2318.140625 L 5438.027344 2363.882813 Z M 5479.074219 2648.492188 L 5479.074219 2318.140625 L 5532.667969 2318.140625 L 5532.667969 2440.117188 L 5695.304688 2440.117188 L 5695.304688 2318.140625 L 5748.898438 2318.140625 L 5748.898438 2648.492188 L 5695.304688 2648.492188 L 5695.304688 2488.167969 L 5532.667969 2488.167969 L 5532.667969 2648.492188 Z M 6229.183594 2398.535156 C 6214.011719 2385.597656 6197.917969 2375.894531 6181.054688 2369.425781 C 6164.113281 2362.957031 6146.324219 2359.722656 6127.691406 2359.722656 C 6091.652344 2359.722656 6062.3125 2371.273438 6039.671875 2394.453125 C 6017.03125 2417.632813 6005.714844 2447.585938 6005.714844 2484.472656 C 6005.714844 2520.046875 6016.726563 2549.464844 6038.75 2572.644531 C 6060.773438 2595.820313 6088.570313 2607.371094 6122.070313 2607.371094 C 6141.628906 2607.371094 6160.1875 2603.90625 6177.898438 2596.976563 C 6195.53125 2590.046875 6212.472656 2579.652344 6228.722656 2565.636719 L 6228.722656 2626.316406 C 6214.320313 2636.710938 6198.613281 2644.488281 6181.59375 2649.570313 C 6164.574219 2654.730469 6146.171875 2657.273438 6126.378906 2657.273438 C 6101.121094 2657.273438 6077.789063 2653.113281 6056.382813 2644.875 C 6034.898438 2636.558594 6016.109375 2624.390625 5999.859375 2608.296875 C 5983.765625 2592.511719 5971.445313 2573.875 5962.742188 2552.46875 C 5954.121094 2531.058594 5949.808594 2508.1875 5949.808594 2484.007813 C 5949.808594 2459.753906 5954.121094 2437.035156 5962.742188 2415.78125 C 5971.445313 2394.453125 5983.921875 2375.816406 6000.324219 2359.722656 C 6016.726563 2343.472656 6035.515625 2331.152344 6056.691406 2322.835938 C 6077.867188 2314.445313 6100.816406 2310.285156 6125.457031 2310.285156 C 6144.863281 2310.285156 6163.34375 2313.132813 6180.902344 2318.757813 C 6198.535156 2324.453125 6215.554688 2333 6232.109375 2344.476563 Z M 6365.558594 2518.660156 L 6457.65625 2518.660156 L 6423.777344 2443.351563 C 6421.851563 2438.578125 6419.769531 2433.03125 6417.691406 2426.792969 C 6415.613281 2420.558594 6413.457031 2413.625 6411.378906 2405.925781 C 6409.605469 2413.164063 6407.679688 2419.863281 6405.601563 2426.101563 C 6403.601563 2432.339844 6401.519531 2438.113281 6399.441406 2443.351563 Z M 6514.027344 2648.492188 L 6476.601563 2563.480469 L 6345.691406 2563.480469 L 6307.34375 2648.492188 L 6250.976563 2648.492188 L 6410.914063 2305.203125 L 6570.703125 2648.492188 Z M 6655.332031 2459.058594 L 6665.109375 2459.058594 C 6693.527344 2459.058594 6712.390625 2455.75 6721.710938 2449.125 C 6731.027344 2442.503906 6735.726563 2430.796875 6735.726563 2413.933594 C 6735.726563 2395.761719 6730.71875 2382.980469 6720.710938 2375.507813 C 6710.699219 2368.039063 6692.140625 2364.34375 6665.109375 2364.34375 L 6655.332031 2364.34375 Z M 6652.097656 2500.644531 L 6652.097656 2648.492188 L 6601.734375 2648.492188 L 6601.734375 2318.140625 L 6676.585938 2318.140625 C 6698.53125 2318.140625 6715.550781 2319.601563 6727.714844 2322.453125 C 6739.804688 2325.300781 6750.125 2330 6758.671875 2336.621094 C 6768.914063 2344.628906 6776.769531 2354.949219 6782.390625 2367.578125 C 6787.933594 2380.207031 6790.707031 2393.992188 6790.707031 2409.082031 C 6790.707031 2435.496094 6784.316406 2456.210938 6771.53125 2471.226563 C 6758.75 2486.164063 6739.882813 2495.175781 6714.933594 2498.179688 L 6828.59375 2648.492188 L 6768.066406 2648.492188 L 6658.105469 2500.644531 Z M 6860.472656 2648.492188 L 6860.472656 2318.140625 L 7044.824219 2318.140625 L 7044.824219 2363.882813 L 6914.070313 2363.882813 L 6914.070313 2446.585938 L 7044.824219 2446.585938 L 7044.824219 2493.710938 L 6914.070313 2493.710938 L 6914.070313 2600.441406 L 7044.824219 2600.441406 L 7044.824219 2648.492188 Z M 7315.574219 2518.660156 L 7407.675781 2518.660156 L 7373.792969 2443.351563 C 7371.867188 2438.578125 7369.789063 2433.03125 7367.707031 2426.792969 C 7365.628906 2420.558594 7363.472656 2413.625 7361.394531 2405.925781 C 7359.625 2413.164063 7357.699219 2419.863281 7355.617188 2426.101563 C 7353.617188 2432.339844 7351.539063 2438.113281 7349.457031 2443.351563 Z M 7464.042969 2648.492188 L 7426.617188 2563.480469 L 7295.707031 2563.480469 L 7257.359375 2648.492188 L 7200.992188 2648.492188 L 7360.933594 2305.203125 L 7520.71875 2648.492188 Z M 7551.753906 2648.492188 L 7551.753906 2305.203125 L 7761.667969 2507.035156 C 7767.367188 2512.734375 7773.144531 2518.816406 7779.070313 2525.285156 C 7784.925781 2531.753906 7791.085938 2539.070313 7797.554688 2547.152344 L 7797.554688 2318.140625 L 7846.992188 2318.140625 L 7846.992188 2661.429688 L 7632.992188 2455.824219 C 7627.292969 2450.203125 7621.75 2444.351563 7616.4375 2438.191406 C 7611.046875 2432.03125 7606.039063 2425.5625 7601.1875 2418.785156 L 7601.1875 2648.492188 Z M 7976.4375 2599.980469 L 8021.640625 2599.980469 C 8046.433594 2599.980469 8065.070313 2598.363281 8077.46875 2595.050781 C 8089.941406 2591.742188 8100.722656 2586.117188 8109.886719 2578.339844 C 8122.363281 2567.636719 8131.757813 2554.394531 8137.996094 2538.453125 C 8144.230469 2522.589844 8147.390625 2504.109375 8147.390625 2483.085938 C 8147.390625 2461.984375 8144.230469 2443.582031 8137.996094 2427.71875 C 8131.757813 2411.777344 8122.363281 2398.535156 8109.886719 2387.828125 C 8100.570313 2380.050781 8089.402344 2374.429688 8076.390625 2371.121094 C 8063.375 2367.808594 8042.96875 2366.191406 8015.246094 2366.191406 L 7976.4375 2366.191406 Z M 7922.839844 2648.492188 L 7922.839844 2318.140625 L 7995.148438 2318.140625 C 8042.277344 2318.140625 8075.390625 2320.527344 8094.640625 2325.222656 C 8113.816406 2330 8130.601563 2337.929688 8145.078125 2349.019531 C 8164.175781 2363.648438 8178.652344 2382.363281 8188.511719 2405.234375 C 8198.367188 2428.105469 8203.296875 2454.207031 8203.296875 2483.546875 C 8203.296875 2512.886719 8198.367188 2538.835938 8188.511719 2561.476563 C 8178.652344 2584.117188 8164.175781 2602.828125 8145.078125 2617.613281 C 8130.601563 2628.703125 8114.199219 2636.632813 8095.71875 2641.410156 C 8077.3125 2646.105469 8048.589844 2648.492188 8009.625 2648.492188 Z M 8673.644531 2485.394531 C 8673.027344 2482.855469 8672.027344 2475.769531 8670.71875 2464.21875 C 8669.488281 2454.59375 8668.40625 2446.585938 8667.5625 2440.269531 C 8666.175781 2447.816406 8664.25 2455.363281 8661.785156 2462.832031 C 8659.320313 2470.378906 8656.164063 2478.003906 8652.390625 2485.859375 L 8565.992188 2661.890625 L 8479.589844 2482.238281 C 8475.972656 2474.847656 8472.816406 2467.761719 8470.195313 2460.832031 C 8467.578125 2453.902344 8465.269531 2447.046875 8463.34375 2440.269531 C 8463.1875 2447.199219 8462.648438 2454.4375 8461.648438 2462.0625 C 8460.648438 2469.6875 8459.183594 2477.617188 8457.257813 2485.859375 L 8421.835938 2648.492188 L 8372.398438 2648.492188 L 8450.484375 2304.277344 L 8547.972656 2512.734375 C 8549.433594 2515.96875 8551.746094 2521.511719 8554.824219 2529.136719 C 8557.90625 2536.835938 8561.601563 2546.308594 8565.992188 2557.550781 C 8569.148438 2548.078125 8574.152344 2536.066406 8580.929688 2521.511719 C 8582.703125 2517.585938 8584.085938 2514.582031 8584.933594 2512.5 L 8680.191406 2304.277344 L 8760.042969 2648.492188 L 8710.144531 2648.492188 Z M 8802.9375 2648.492188 L 8802.9375 2318.140625 L 8987.289063 2318.140625 L 8987.289063 2363.882813 L 8856.53125 2363.882813 L 8856.53125 2446.585938 L 8987.289063 2446.585938 L 8987.289063 2493.710938 L 8856.53125 2493.710938 L 8856.53125 2600.441406 L 8987.289063 2600.441406 L 8987.289063 2648.492188 Z M 9102.410156 2599.980469 L 9147.613281 2599.980469 C 9172.410156 2599.980469 9191.042969 2598.363281 9203.441406 2595.050781 C 9215.917969 2591.742188 9226.699219 2586.117188 9235.863281 2578.339844 C 9248.335938 2567.636719 9257.730469 2554.394531 9263.96875 2538.453125 C 9270.207031 2522.589844 9273.363281 2504.109375 9273.363281 2483.085938 C 9273.363281 2461.984375 9270.207031 2443.582031 9263.96875 2427.71875 C 9257.730469 2411.777344 9248.335938 2398.535156 9235.863281 2387.828125 C 9226.542969 2380.050781 9215.378906 2374.429688 9202.363281 2371.121094 C 9189.351563 2367.808594 9168.945313 2366.191406 9141.222656 2366.191406 L 9102.410156 2366.191406 Z M 9048.816406 2648.492188 L 9048.816406 2318.140625 L 9121.125 2318.140625 C 9168.25 2318.140625 9201.363281 2320.527344 9220.613281 2325.222656 C 9239.789063 2330 9256.578125 2337.929688 9271.054688 2349.019531 C 9290.152344 2363.648438 9304.628906 2382.363281 9314.484375 2405.234375 C 9324.339844 2428.105469 9329.269531 2454.207031 9329.269531 2483.546875 C 9329.269531 2512.886719 9324.339844 2538.835938 9314.484375 2561.476563 C 9304.628906 2584.117188 9290.152344 2602.828125 9271.054688 2617.613281 C 9256.578125 2628.703125 9240.171875 2636.632813 9221.691406 2641.410156 C 9203.289063 2646.105469 9174.566406 2648.492188 9135.601563 2648.492188 Z M 9391.722656 2648.492188 L 9391.722656 2318.140625 L 9445.316406 2318.140625 L 9445.316406 2648.492188 Z M 9787.605469 2398.535156 C 9772.4375 2385.597656 9756.339844 2375.894531 9739.476563 2369.425781 C 9722.535156 2362.957031 9704.746094 2359.722656 9686.113281 2359.722656 C 9650.074219 2359.722656 9620.734375 2371.273438 9598.09375 2394.453125 C 9575.457031 2417.632813 9564.136719 2447.585938 9564.136719 2484.472656 C 9564.136719 2520.046875 9575.148438 2549.464844 9597.171875 2572.644531 C 9619.195313 2595.820313 9646.992188 2607.371094 9680.492188 2607.371094 C 9700.050781 2607.371094 9718.609375 2603.90625 9736.320313 2596.976563 C 9753.953125 2590.046875 9770.894531 2579.652344 9787.144531 2565.636719 L 9787.144531 2626.316406 C 9772.742188 2636.710938 9757.035156 2644.488281 9740.015625 2649.570313 C 9723 2654.730469 9704.59375 2657.273438 9684.804688 2657.273438 C 9659.546875 2657.273438 9636.214844 2653.113281 9614.804688 2644.875 C 9593.320313 2636.558594 9574.53125 2624.390625 9558.285156 2608.296875 C 9542.1875 2592.511719 9529.867188 2573.875 9521.167969 2552.46875 C 9512.542969 2531.058594 9508.230469 2508.1875 9508.230469 2484.007813 C 9508.230469 2459.753906 9512.542969 2437.035156 9521.167969 2415.78125 C 9529.867188 2394.453125 9542.34375 2375.816406 9558.746094 2359.722656 C 9575.148438 2343.472656 9593.9375 2331.152344 9615.113281 2322.835938 C 9636.289063 2314.445313 9659.238281 2310.285156 9683.878906 2310.285156 C 9703.285156 2310.285156 9721.765625 2313.132813 9739.324219 2318.757813 C 9756.957031 2324.453125 9773.976563 2333 9790.53125 2344.476563 Z M 9923.984375 2518.660156 L 10016.082031 2518.660156 L 9982.199219 2443.351563 C 9980.273438 2438.578125 9978.195313 2433.03125 9976.117188 2426.792969 C 9974.035156 2420.558594 9971.878906 2413.625 9969.800781 2405.925781 C 9968.03125 2413.164063 9966.105469 2419.863281 9964.023438 2426.101563 C 9962.023438 2432.339844 9959.945313 2438.113281 9957.863281 2443.351563 Z M 10072.449219 2648.492188 L 10035.023438 2563.480469 L 9904.113281 2563.480469 L 9865.765625 2648.492188 L 9809.398438 2648.492188 L 9969.339844 2305.203125 L 10129.125 2648.492188 Z M 10160.160156 2648.492188 L 10160.160156 2318.140625 L 10213.753906 2318.140625 L 10213.753906 2600.441406 L 10333.882813 2600.441406 L 10333.882813 2648.492188 Z M 10623.578125 2363.882813 L 10623.578125 2648.492188 L 10569.980469 2648.492188 L 10569.980469 2363.882813 L 10482.195313 2363.882813 L 10482.195313 2318.140625 L 10710.902344 2318.140625 L 10710.902344 2363.882813 Z M 11018.230469 2484.007813 C 11018.230469 2467.300781 11015.148438 2451.4375 11009.066406 2436.421875 C 11002.984375 2421.402344 10994.203125 2408.003906 10982.808594 2396.300781 C 10971.640625 2384.671875 10958.78125 2375.816406 10944.152344 2369.578125 C 10929.441406 2363.34375 10913.964844 2360.183594 10897.792969 2360.183594 C 10881.546875 2360.183594 10866.066406 2363.265625 10851.359375 2369.425781 C 10836.726563 2375.585938 10823.636719 2384.519531 10812.242188 2396.300781 C 10800.84375 2407.851563 10792.066406 2421.171875 10786.058594 2436.1875 C 10780.050781 2451.207031 10777.050781 2467.144531 10777.050781 2484.007813 C 10777.050781 2500.71875 10780.050781 2516.507813 10786.058594 2531.367188 C 10792.066406 2546.230469 10800.84375 2559.550781 10812.242188 2571.257813 C 10823.636719 2583.039063 10836.652344 2591.972656 10851.28125 2598.132813 C 10865.835938 2604.292969 10881.390625 2607.371094 10897.792969 2607.371094 C 10913.886719 2607.371094 10929.136719 2604.292969 10943.6875 2598.132813 C 10958.164063 2591.972656 10971.257813 2583.039063 10982.808594 2571.257813 C 10994.203125 2559.550781 11002.984375 2546.230469 11009.066406 2531.289063 C 11015.148438 2516.273438 11018.230469 2500.566406 11018.230469 2484.007813 Z M 11074.136719 2484.007813 C 11074.136719 2507.496094 11069.746094 2529.671875 11060.96875 2550.542969 C 11052.113281 2571.488281 11039.328125 2590.125 11022.464844 2606.523438 C 11005.523438 2622.925781 10986.351563 2635.480469 10964.941406 2644.179688 C 10943.613281 2652.882813 10921.203125 2657.273438 10897.792969 2657.273438 C 10874 2657.273438 10851.359375 2652.882813 10829.71875 2644.105469 C 10808.160156 2635.25 10789.140625 2622.773438 10772.582031 2606.523438 C 10755.71875 2590.125 10742.9375 2571.566406 10734.234375 2550.773438 C 10725.53125 2530.058594 10721.144531 2507.804688 10721.144531 2484.007813 C 10721.144531 2460.367188 10725.53125 2438.113281 10734.234375 2417.246094 C 10742.9375 2396.300781 10755.71875 2377.589844 10772.582031 2361.03125 C 10789.445313 2344.628906 10808.542969 2332.15625 10829.875 2323.605469 C 10851.207031 2315.058594 10873.84375 2310.746094 10897.792969 2310.746094 C 10921.511719 2310.746094 10943.996094 2315.058594 10965.328125 2323.605469 C 10986.582031 2332.15625 11005.679688 2344.628906 11022.464844 2361.03125 C 11039.328125 2377.742188 11052.113281 2396.609375 11060.96875 2417.554688 C 11069.746094 2438.578125 11074.136719 2460.675781 11074.136719 2484.007813 Z M 11134.277344 2318.140625 L 11187.410156 2318.140625 L 11187.410156 2518.738281 C 11187.410156 2548.464844 11194.265625 2570.871094 11208.050781 2585.8125 C 11221.832031 2600.828125 11242.394531 2608.296875 11269.808594 2608.296875 C 11296.988281 2608.296875 11317.472656 2600.828125 11331.257813 2585.8125 C 11345.042969 2570.871094 11351.894531 2548.464844 11351.894531 2518.738281 L 11351.894531 2318.140625 L 11405.492188 2318.140625 L 11405.492188 2523.667969 C 11405.492188 2568.332031 11394.246094 2601.828125 11371.683594 2624.003906 C 11349.121094 2646.183594 11315.085938 2657.273438 11269.652344 2657.273438 C 11224.21875 2657.273438 11190.335938 2646.183594 11167.929688 2624.082031 C 11145.519531 2601.980469 11134.277344 2568.484375 11134.277344 2523.667969 Z M 11533.089844 2459.058594 L 11542.867188 2459.058594 C 11571.285156 2459.058594 11590.148438 2455.75 11599.46875 2449.125 C 11608.785156 2442.503906 11613.484375 2430.796875 11613.484375 2413.933594 C 11613.484375 2395.761719 11608.476563 2382.980469 11598.464844 2375.507813 C 11588.457031 2368.039063 11569.898438 2364.34375 11542.867188 2364.34375 L 11533.089844 2364.34375 Z M 11529.855469 2500.644531 L 11529.855469 2648.492188 L 11479.492188 2648.492188 L 11479.492188 2318.140625 L 11554.34375 2318.140625 C 11576.289063 2318.140625 11593.308594 2319.601563 11605.472656 2322.453125 C 11617.5625 2325.300781 11627.882813 2330 11636.429688 2336.621094 C 11646.671875 2344.628906 11654.527344 2354.949219 11660.148438 2367.578125 C 11665.691406 2380.207031 11668.464844 2393.992188 11668.464844 2409.082031 C 11668.464844 2435.496094 11662.074219 2456.210938 11649.289063 2471.226563 C 11636.507813 2486.164063 11617.640625 2495.175781 11592.691406 2498.179688 L 11706.351563 2648.492188 L 11645.824219 2648.492188 L 11535.859375 2500.644531 Z M 11739.15625 2648.492188 L 11739.15625 2318.140625 L 11792.75 2318.140625 L 11792.75 2648.492188 Z M 11851.042969 2582.34375 L 11893.859375 2562.554688 C 11897.941406 2577.261719 11905.410156 2588.507813 11916.269531 2596.207031 C 11927.046875 2603.984375 11940.910156 2607.835938 11957.773438 2607.835938 C 11973.789063 2607.835938 11986.417969 2603.367188 11995.890625 2594.511719 C 12005.285156 2585.65625 12009.984375 2573.796875 12009.984375 2558.9375 C 12009.984375 2539.53125 11993.890625 2522.203125 11961.625 2507.035156 C 11957.082031 2504.800781 11953.617188 2503.105469 11951.226563 2502.105469 C 11914.804688 2484.316406 11890.546875 2468.300781 11878.457031 2453.902344 C 11866.367188 2439.5 11860.285156 2421.941406 11860.285156 2401.230469 C 11860.285156 2374.277344 11869.449219 2352.484375 11887.699219 2335.773438 C 11905.949219 2319.0625 11929.976563 2310.746094 11959.621094 2310.746094 C 11983.957031 2310.746094 12004.363281 2315.445313 12020.765625 2324.839844 C 12037.167969 2334.234375 12048.484375 2347.710938 12054.800781 2365.265625 L 12012.910156 2386.984375 C 12006.289063 2376.585938 11999.046875 2368.964844 11991.117188 2364.1875 C 11983.1875 2359.339844 11974.097656 2356.949219 11963.855469 2356.949219 C 11949.457031 2356.949219 11937.90625 2360.722656 11929.4375 2368.269531 C 11920.886719 2375.738281 11916.652344 2385.828125 11916.652344 2398.457031 C 11916.652344 2418.324219 11935.367188 2436.882813 11972.714844 2453.976563 C 11975.5625 2455.363281 11977.796875 2456.441406 11979.488281 2457.132813 C 12012.140625 2472.226563 12034.546875 2486.9375 12046.714844 2501.257813 C 12058.882813 2515.660156 12064.964844 2533.601563 12064.964844 2555.085938 C 12064.964844 2586.351563 12055.109375 2611.222656 12035.394531 2629.628906 C 12015.683594 2648.03125 11989.039063 2657.273438 11955.464844 2657.273438 C 11927.355469 2657.273438 11904.332031 2650.804688 11886.3125 2637.867188 C 11868.371094 2624.929688 11856.589844 2606.449219 11851.042969 2582.34375 Z M 12392.929688 2485.394531 C 12392.316406 2482.855469 12391.316406 2475.769531 12390.003906 2464.21875 C 12388.773438 2454.59375 12387.695313 2446.585938 12386.847656 2440.269531 C 12385.460938 2447.816406 12383.535156 2455.363281 12381.074219 2462.832031 C 12378.609375 2470.378906 12375.453125 2478.003906 12371.679688 2485.859375 L 12285.277344 2661.890625 L 12198.878906 2482.238281 C 12195.257813 2474.847656 12192.101563 2467.761719 12189.484375 2460.832031 C 12186.863281 2453.902344 12184.554688 2447.046875 12182.628906 2440.269531 C 12182.476563 2447.199219 12181.9375 2454.4375 12180.9375 2462.0625 C 12179.933594 2469.6875 12178.472656 2477.617188 12176.546875 2485.859375 L 12141.125 2648.492188 L 12091.6875 2648.492188 L 12169.769531 2304.277344 L 12267.257813 2512.734375 C 12268.722656 2515.96875 12271.03125 2521.511719 12274.113281 2529.136719 C 12277.191406 2536.835938 12280.886719 2546.308594 12285.277344 2557.550781 C 12288.433594 2548.078125 12293.441406 2536.066406 12300.21875 2521.511719 C 12301.988281 2517.585938 12303.375 2514.582031 12304.222656 2512.5 L 12399.476563 2304.277344 L 12479.332031 2648.492188 L 12429.433594 2648.492188 Z M 12392.929688 2485.394531 "/>
<path style=" stroke:none;fill-rule:evenodd;fill:rgb(241 241 241);fill-opacity:1;" d="M 3603.8125 58.332031 C 3615.773438 58.332031 3625.5625 68.121094 3625.5625 80.082031 L 3625.5625 3179.808594 C 3625.5625 3191.769531 3615.773438 3201.558594 3603.8125 3201.558594 C 3591.847656 3201.558594 3582.0625 3191.769531 3582.0625 3179.808594 L 3582.0625 80.082031 C 3582.0625 68.121094 3591.847656 58.332031 3603.8125 58.332031 "/>
<path style=" stroke:none;fill-rule:nonzero;fill:rgb(44.313049%,71.372986%,89.411926%);fill-opacity:1;" d="M 2280.410156 736.253906 L 2090.1875 926.53125 C 2023.582031 993.125 2023.613281 1101.023438 2090.1875 1167.597656 L 2400.980469 856.824219 Z M 2280.410156 736.253906 "/>
<path style=" stroke:none;fill-rule:nonzero;fill:rgb(28.627014%,54.510498%,79.216003%);fill-opacity:1;" d="M 2331.273438 1167.597656 L 2521.507813 977.355469 L 2400.980469 856.824219 L 2090.1875 1167.597656 C 2156.761719 1234.183594 2264.691406 1234.183594 2331.273438 1167.597656 "/>
<path style=" stroke:none;fill-rule:nonzero;fill:rgb(100%,94.902039%,0%);fill-opacity:1;" d="M 2711.753906 546.019531 C 2645.171875 479.4375 2537.253906 479.417969 2470.640625 546.019531 L 2280.410156 736.253906 L 2400.980469 856.824219 Z M 2711.753906 546.019531 "/>
<path style=" stroke:none;fill-rule:nonzero;fill:rgb(100%,79.608154%,1.568604%);fill-opacity:1;" d="M 2521.507813 977.355469 L 2711.753906 787.125 C 2778.324219 720.539063 2778.332031 612.613281 2711.753906 546.019531 L 2400.980469 856.824219 Z M 2521.507813 977.355469 "/>
<path style=" stroke:none;fill-rule:nonzero;fill:rgb(71.765137%,85.882568%,95.68634%);fill-opacity:1;" d="M 2136.109375 1008.785156 C 2127.328125 1008.785156 2118.554688 1005.425781 2111.867188 998.71875 C 2098.457031 985.328125 2098.457031 963.597656 2111.867188 950.21875 L 2303.109375 758.953125 L 2351.628906 807.472656 L 2160.375 998.71875 C 2153.675781 1005.425781 2144.894531 1008.785156 2136.109375 1008.785156 "/>
<path style=" stroke:none;fill-rule:nonzero;fill:rgb(100%,100%,100%);fill-opacity:1;" d="M 2351.628906 807.472656 L 2303.109375 758.953125 L 2563.550781 498.503906 C 2572.738281 496.988281 2582.015625 496.242188 2591.296875 496.242188 C 2611.824219 496.242188 2632.332031 499.933594 2651.769531 507.34375 Z M 2351.628906 807.472656 "/>
<path style=" stroke:none;fill-rule:nonzero;fill:rgb(100%,100%,100%);fill-opacity:1;" d="M 2605.445313 984.132813 C 2605.445313 1093.851563 2681.265625 1185.628906 2783.28125 1210.621094 L 2783.28125 757.683594 C 2681.246094 782.679688 2605.445313 874.445313 2605.445313 984.132813 "/>
<path style=" stroke:none;fill-rule:nonzero;fill:rgb(39.607239%,39.215088%,39.215088%);fill-opacity:1;" d="M 2838.847656 750.742188 C 2819.65625 750.75 2801.117188 753.324219 2783.28125 757.683594 L 2783.28125 1210.621094 C 2801.117188 1214.972656 2819.65625 1217.546875 2838.847656 1217.527344 Z M 2838.847656 750.742188 "/>
<path style=" stroke:none;fill-rule:nonzero;fill:rgb(79.608154%,80.000305%,79.608154%);fill-opacity:1;" d="M 3072.242188 984.132813 C 3072.242188 874.445313 2996.460938 782.679688 2894.417969 757.683594 L 2894.417969 1210.621094 C 2996.460938 1185.628906 3072.242188 1093.851563 3072.242188 984.132813 "/>
<path style=" stroke:none;fill-rule:nonzero;fill:rgb(100%,100%,100%);fill-opacity:1;" d="M 2838.847656 1217.527344 C 2858.03125 1217.546875 2876.582031 1214.972656 2894.417969 1210.621094 L 2894.417969 757.683594 C 2876.582031 753.324219 2858.03125 750.75 2838.847656 750.742188 Z M 2838.847656 1217.527344 "/>
</g>
</svg>
